M48
;DRILL file {KiCad (5.0.2)-1} date 8/11/2019 11:38:41 PM
;FORMAT={-:-/ absolute / inch / decimal}
FMAT,2
INCH,TZ
T1C0.0157
T2C0.0394
%
G90
G05
T1
X4.6905Y-3.133
X4.691Y-3.5455
X4.691Y-3.583
X4.6915Y-3.169
X4.81Y-3.408
X4.813Y-3.3105
X4.865Y-3.075
X4.865Y-3.19
X4.865Y-3.525
X4.8965Y-3.311
X4.8975Y-3.407
X5.08Y-3.12
T2
X4.425Y-3.21
X4.425Y-3.31
X4.425Y-3.41
X4.425Y-3.51
X5.25Y-3.21
X5.25Y-3.31
X5.25Y-3.41
X5.25Y-3.51
X4.7644Y-2.9964
X4.8644Y-2.9964
X4.9644Y-2.9964
T0
M30
