G04 #@! TF.GenerationSoftware,KiCad,Pcbnew,(5.0.2)-1*
G04 #@! TF.CreationDate,2019-08-11T23:38:39-04:00*
G04 #@! TF.ProjectId,LT1356,4c543133-3536-42e6-9b69-6361645f7063,rev?*
G04 #@! TF.SameCoordinates,Original*
G04 #@! TF.FileFunction,Soldermask,Top*
G04 #@! TF.FilePolarity,Negative*
%FSLAX46Y46*%
G04 Gerber Fmt 4.6, Leading zero omitted, Abs format (unit mm)*
G04 Created by KiCad (PCBNEW (5.0.2)-1) date 8/11/2019 11:38:39 PM*
%MOMM*%
%LPD*%
G01*
G04 APERTURE LIST*
%ADD10C,0.100000*%
G04 APERTURE END LIST*
D10*
G36*
X122900677Y-89931465D02*
X122938364Y-89942898D01*
X122973103Y-89961466D01*
X123003548Y-89986452D01*
X123028534Y-90016897D01*
X123047102Y-90051636D01*
X123058535Y-90089323D01*
X123063000Y-90134661D01*
X123063000Y-91221339D01*
X123058535Y-91266677D01*
X123047102Y-91304364D01*
X123028534Y-91339103D01*
X123003548Y-91369548D01*
X122973103Y-91394534D01*
X122938364Y-91413102D01*
X122900677Y-91424535D01*
X122855339Y-91429000D01*
X122018661Y-91429000D01*
X121973323Y-91424535D01*
X121935636Y-91413102D01*
X121900897Y-91394534D01*
X121870452Y-91369548D01*
X121845466Y-91339103D01*
X121826898Y-91304364D01*
X121815465Y-91266677D01*
X121811000Y-91221339D01*
X121811000Y-90134661D01*
X121815465Y-90089323D01*
X121826898Y-90051636D01*
X121845466Y-90016897D01*
X121870452Y-89986452D01*
X121900897Y-89961466D01*
X121935636Y-89942898D01*
X121973323Y-89931465D01*
X122018661Y-89927000D01*
X122855339Y-89927000D01*
X122900677Y-89931465D01*
X122900677Y-89931465D01*
G37*
G36*
X120850677Y-89931465D02*
X120888364Y-89942898D01*
X120923103Y-89961466D01*
X120953548Y-89986452D01*
X120978534Y-90016897D01*
X120997102Y-90051636D01*
X121008535Y-90089323D01*
X121013000Y-90134661D01*
X121013000Y-91221339D01*
X121008535Y-91266677D01*
X120997102Y-91304364D01*
X120978534Y-91339103D01*
X120953548Y-91369548D01*
X120923103Y-91394534D01*
X120888364Y-91413102D01*
X120850677Y-91424535D01*
X120805339Y-91429000D01*
X119968661Y-91429000D01*
X119923323Y-91424535D01*
X119885636Y-91413102D01*
X119850897Y-91394534D01*
X119820452Y-91369548D01*
X119795466Y-91339103D01*
X119776898Y-91304364D01*
X119765465Y-91266677D01*
X119761000Y-91221339D01*
X119761000Y-90134661D01*
X119765465Y-90089323D01*
X119776898Y-90051636D01*
X119795466Y-90016897D01*
X119820452Y-89986452D01*
X119850897Y-89961466D01*
X119885636Y-89942898D01*
X119923323Y-89931465D01*
X119968661Y-89927000D01*
X120805339Y-89927000D01*
X120850677Y-89931465D01*
X120850677Y-89931465D01*
G37*
G36*
X133460443Y-88259519D02*
X133526627Y-88266037D01*
X133639853Y-88300384D01*
X133696467Y-88317557D01*
X133835087Y-88391652D01*
X133852991Y-88401222D01*
X133888729Y-88430552D01*
X133990186Y-88513814D01*
X134073448Y-88615271D01*
X134102778Y-88651009D01*
X134102779Y-88651011D01*
X134186443Y-88807533D01*
X134186443Y-88807534D01*
X134237963Y-88977373D01*
X134255359Y-89154000D01*
X134237963Y-89330627D01*
X134203616Y-89443853D01*
X134186443Y-89500467D01*
X134112348Y-89639087D01*
X134102778Y-89656991D01*
X134073448Y-89692729D01*
X133990186Y-89794186D01*
X133888729Y-89877448D01*
X133852991Y-89906778D01*
X133852989Y-89906779D01*
X133696467Y-89990443D01*
X133642814Y-90006718D01*
X133526627Y-90041963D01*
X133465717Y-90047962D01*
X133394260Y-90055000D01*
X133305740Y-90055000D01*
X133234283Y-90047962D01*
X133173373Y-90041963D01*
X133057186Y-90006718D01*
X133003533Y-89990443D01*
X132847011Y-89906779D01*
X132847009Y-89906778D01*
X132811271Y-89877448D01*
X132709814Y-89794186D01*
X132626552Y-89692729D01*
X132597222Y-89656991D01*
X132587652Y-89639087D01*
X132513557Y-89500467D01*
X132496384Y-89443853D01*
X132462037Y-89330627D01*
X132444641Y-89154000D01*
X132462037Y-88977373D01*
X132513557Y-88807534D01*
X132513557Y-88807533D01*
X132597221Y-88651011D01*
X132597222Y-88651009D01*
X132626552Y-88615271D01*
X132709814Y-88513814D01*
X132811271Y-88430552D01*
X132847009Y-88401222D01*
X132864913Y-88391652D01*
X133003533Y-88317557D01*
X133060147Y-88300384D01*
X133173373Y-88266037D01*
X133239557Y-88259519D01*
X133305740Y-88253000D01*
X133394260Y-88253000D01*
X133460443Y-88259519D01*
X133460443Y-88259519D01*
G37*
G36*
X112505443Y-88259519D02*
X112571627Y-88266037D01*
X112684853Y-88300384D01*
X112741467Y-88317557D01*
X112880087Y-88391652D01*
X112897991Y-88401222D01*
X112933729Y-88430552D01*
X113035186Y-88513814D01*
X113118448Y-88615271D01*
X113147778Y-88651009D01*
X113147779Y-88651011D01*
X113231443Y-88807533D01*
X113231443Y-88807534D01*
X113282963Y-88977373D01*
X113300359Y-89154000D01*
X113282963Y-89330627D01*
X113248616Y-89443853D01*
X113231443Y-89500467D01*
X113157348Y-89639087D01*
X113147778Y-89656991D01*
X113118448Y-89692729D01*
X113035186Y-89794186D01*
X112933729Y-89877448D01*
X112897991Y-89906778D01*
X112897989Y-89906779D01*
X112741467Y-89990443D01*
X112687814Y-90006718D01*
X112571627Y-90041963D01*
X112510717Y-90047962D01*
X112439260Y-90055000D01*
X112350740Y-90055000D01*
X112279283Y-90047962D01*
X112218373Y-90041963D01*
X112102186Y-90006718D01*
X112048533Y-89990443D01*
X111892011Y-89906779D01*
X111892009Y-89906778D01*
X111856271Y-89877448D01*
X111754814Y-89794186D01*
X111671552Y-89692729D01*
X111642222Y-89656991D01*
X111632652Y-89639087D01*
X111558557Y-89500467D01*
X111541384Y-89443853D01*
X111507037Y-89330627D01*
X111489641Y-89154000D01*
X111507037Y-88977373D01*
X111558557Y-88807534D01*
X111558557Y-88807533D01*
X111642221Y-88651011D01*
X111642222Y-88651009D01*
X111671552Y-88615271D01*
X111754814Y-88513814D01*
X111856271Y-88430552D01*
X111892009Y-88401222D01*
X111909913Y-88391652D01*
X112048533Y-88317557D01*
X112105147Y-88300384D01*
X112218373Y-88266037D01*
X112284557Y-88259519D01*
X112350740Y-88253000D01*
X112439260Y-88253000D01*
X112505443Y-88259519D01*
X112505443Y-88259519D01*
G37*
G36*
X127820569Y-88956565D02*
X126918569Y-88956565D01*
X126918569Y-87254565D01*
X127820569Y-87254565D01*
X127820569Y-88956565D01*
X127820569Y-88956565D01*
G37*
G36*
X120200569Y-88956565D02*
X119298569Y-88956565D01*
X119298569Y-87254565D01*
X120200569Y-87254565D01*
X120200569Y-88956565D01*
X120200569Y-88956565D01*
G37*
G36*
X118920569Y-88956565D02*
X118018569Y-88956565D01*
X118018569Y-87254565D01*
X118920569Y-87254565D01*
X118920569Y-88956565D01*
X118920569Y-88956565D01*
G37*
G36*
X121460569Y-88956565D02*
X120558569Y-88956565D01*
X120558569Y-87254565D01*
X121460569Y-87254565D01*
X121460569Y-88956565D01*
X121460569Y-88956565D01*
G37*
G36*
X122730569Y-88956565D02*
X121828569Y-88956565D01*
X121828569Y-87254565D01*
X122730569Y-87254565D01*
X122730569Y-88956565D01*
X122730569Y-88956565D01*
G37*
G36*
X124010569Y-88956565D02*
X123108569Y-88956565D01*
X123108569Y-87254565D01*
X124010569Y-87254565D01*
X124010569Y-88956565D01*
X124010569Y-88956565D01*
G37*
G36*
X125280569Y-88956565D02*
X124378569Y-88956565D01*
X124378569Y-87254565D01*
X125280569Y-87254565D01*
X125280569Y-88956565D01*
X125280569Y-88956565D01*
G37*
G36*
X126540569Y-88956565D02*
X125638569Y-88956565D01*
X125638569Y-87254565D01*
X126540569Y-87254565D01*
X126540569Y-88956565D01*
X126540569Y-88956565D01*
G37*
G36*
X112505443Y-85719519D02*
X112571627Y-85726037D01*
X112684853Y-85760384D01*
X112741467Y-85777557D01*
X112880087Y-85851652D01*
X112897991Y-85861222D01*
X112933729Y-85890552D01*
X113035186Y-85973814D01*
X113118448Y-86075271D01*
X113147778Y-86111009D01*
X113147779Y-86111011D01*
X113231443Y-86267533D01*
X113231443Y-86267534D01*
X113282963Y-86437373D01*
X113300359Y-86614000D01*
X113282963Y-86790627D01*
X113248616Y-86903853D01*
X113231443Y-86960467D01*
X113157348Y-87099087D01*
X113147778Y-87116991D01*
X113118448Y-87152729D01*
X113035186Y-87254186D01*
X112933729Y-87337448D01*
X112897991Y-87366778D01*
X112897989Y-87366779D01*
X112741467Y-87450443D01*
X112684853Y-87467616D01*
X112571627Y-87501963D01*
X112505443Y-87508481D01*
X112439260Y-87515000D01*
X112350740Y-87515000D01*
X112284557Y-87508481D01*
X112218373Y-87501963D01*
X112105147Y-87467616D01*
X112048533Y-87450443D01*
X111892011Y-87366779D01*
X111892009Y-87366778D01*
X111856271Y-87337448D01*
X111754814Y-87254186D01*
X111671552Y-87152729D01*
X111642222Y-87116991D01*
X111632652Y-87099087D01*
X111558557Y-86960467D01*
X111541384Y-86903853D01*
X111507037Y-86790627D01*
X111489641Y-86614000D01*
X111507037Y-86437373D01*
X111558557Y-86267534D01*
X111558557Y-86267533D01*
X111642221Y-86111011D01*
X111642222Y-86111009D01*
X111671552Y-86075271D01*
X111754814Y-85973814D01*
X111856271Y-85890552D01*
X111892009Y-85861222D01*
X111909913Y-85851652D01*
X112048533Y-85777557D01*
X112105147Y-85760384D01*
X112218373Y-85726037D01*
X112284557Y-85719519D01*
X112350740Y-85713000D01*
X112439260Y-85713000D01*
X112505443Y-85719519D01*
X112505443Y-85719519D01*
G37*
G36*
X133460443Y-85719519D02*
X133526627Y-85726037D01*
X133639853Y-85760384D01*
X133696467Y-85777557D01*
X133835087Y-85851652D01*
X133852991Y-85861222D01*
X133888729Y-85890552D01*
X133990186Y-85973814D01*
X134073448Y-86075271D01*
X134102778Y-86111009D01*
X134102779Y-86111011D01*
X134186443Y-86267533D01*
X134186443Y-86267534D01*
X134237963Y-86437373D01*
X134255359Y-86614000D01*
X134237963Y-86790627D01*
X134203616Y-86903853D01*
X134186443Y-86960467D01*
X134112348Y-87099087D01*
X134102778Y-87116991D01*
X134073448Y-87152729D01*
X133990186Y-87254186D01*
X133888729Y-87337448D01*
X133852991Y-87366778D01*
X133852989Y-87366779D01*
X133696467Y-87450443D01*
X133639853Y-87467616D01*
X133526627Y-87501963D01*
X133460443Y-87508481D01*
X133394260Y-87515000D01*
X133305740Y-87515000D01*
X133239557Y-87508481D01*
X133173373Y-87501963D01*
X133060147Y-87467616D01*
X133003533Y-87450443D01*
X132847011Y-87366779D01*
X132847009Y-87366778D01*
X132811271Y-87337448D01*
X132709814Y-87254186D01*
X132626552Y-87152729D01*
X132597222Y-87116991D01*
X132587652Y-87099087D01*
X132513557Y-86960467D01*
X132496384Y-86903853D01*
X132462037Y-86790627D01*
X132444641Y-86614000D01*
X132462037Y-86437373D01*
X132513557Y-86267534D01*
X132513557Y-86267533D01*
X132597221Y-86111011D01*
X132597222Y-86111009D01*
X132626552Y-86075271D01*
X132709814Y-85973814D01*
X132811271Y-85890552D01*
X132847009Y-85861222D01*
X132864913Y-85851652D01*
X133003533Y-85777557D01*
X133060147Y-85760384D01*
X133173373Y-85726037D01*
X133239557Y-85719519D01*
X133305740Y-85713000D01*
X133394260Y-85713000D01*
X133460443Y-85719519D01*
X133460443Y-85719519D01*
G37*
G36*
X112505442Y-83179518D02*
X112571627Y-83186037D01*
X112684853Y-83220384D01*
X112741467Y-83237557D01*
X112880087Y-83311652D01*
X112897991Y-83321222D01*
X112933729Y-83350552D01*
X113035186Y-83433814D01*
X113118448Y-83535271D01*
X113147778Y-83571009D01*
X113147779Y-83571011D01*
X113231443Y-83727533D01*
X113231443Y-83727534D01*
X113282963Y-83897373D01*
X113300359Y-84074000D01*
X113282963Y-84250627D01*
X113248616Y-84363853D01*
X113231443Y-84420467D01*
X113157348Y-84559087D01*
X113147778Y-84576991D01*
X113118448Y-84612729D01*
X113035186Y-84714186D01*
X112933729Y-84797448D01*
X112897991Y-84826778D01*
X112897989Y-84826779D01*
X112741467Y-84910443D01*
X112684853Y-84927616D01*
X112571627Y-84961963D01*
X112505442Y-84968482D01*
X112439260Y-84975000D01*
X112350740Y-84975000D01*
X112284558Y-84968482D01*
X112218373Y-84961963D01*
X112105147Y-84927616D01*
X112048533Y-84910443D01*
X111892011Y-84826779D01*
X111892009Y-84826778D01*
X111856271Y-84797448D01*
X111754814Y-84714186D01*
X111671552Y-84612729D01*
X111642222Y-84576991D01*
X111632652Y-84559087D01*
X111558557Y-84420467D01*
X111541384Y-84363853D01*
X111507037Y-84250627D01*
X111489641Y-84074000D01*
X111507037Y-83897373D01*
X111558557Y-83727534D01*
X111558557Y-83727533D01*
X111642221Y-83571011D01*
X111642222Y-83571009D01*
X111671552Y-83535271D01*
X111754814Y-83433814D01*
X111856271Y-83350552D01*
X111892009Y-83321222D01*
X111909913Y-83311652D01*
X112048533Y-83237557D01*
X112105147Y-83220384D01*
X112218373Y-83186037D01*
X112284558Y-83179518D01*
X112350740Y-83173000D01*
X112439260Y-83173000D01*
X112505442Y-83179518D01*
X112505442Y-83179518D01*
G37*
G36*
X133460442Y-83179518D02*
X133526627Y-83186037D01*
X133639853Y-83220384D01*
X133696467Y-83237557D01*
X133835087Y-83311652D01*
X133852991Y-83321222D01*
X133888729Y-83350552D01*
X133990186Y-83433814D01*
X134073448Y-83535271D01*
X134102778Y-83571009D01*
X134102779Y-83571011D01*
X134186443Y-83727533D01*
X134186443Y-83727534D01*
X134237963Y-83897373D01*
X134255359Y-84074000D01*
X134237963Y-84250627D01*
X134203616Y-84363853D01*
X134186443Y-84420467D01*
X134112348Y-84559087D01*
X134102778Y-84576991D01*
X134073448Y-84612729D01*
X133990186Y-84714186D01*
X133888729Y-84797448D01*
X133852991Y-84826778D01*
X133852989Y-84826779D01*
X133696467Y-84910443D01*
X133639853Y-84927616D01*
X133526627Y-84961963D01*
X133460442Y-84968482D01*
X133394260Y-84975000D01*
X133305740Y-84975000D01*
X133239558Y-84968482D01*
X133173373Y-84961963D01*
X133060147Y-84927616D01*
X133003533Y-84910443D01*
X132847011Y-84826779D01*
X132847009Y-84826778D01*
X132811271Y-84797448D01*
X132709814Y-84714186D01*
X132626552Y-84612729D01*
X132597222Y-84576991D01*
X132587652Y-84559087D01*
X132513557Y-84420467D01*
X132496384Y-84363853D01*
X132462037Y-84250627D01*
X132444641Y-84074000D01*
X132462037Y-83897373D01*
X132513557Y-83727534D01*
X132513557Y-83727533D01*
X132597221Y-83571011D01*
X132597222Y-83571009D01*
X132626552Y-83535271D01*
X132709814Y-83433814D01*
X132811271Y-83350552D01*
X132847009Y-83321222D01*
X132864913Y-83311652D01*
X133003533Y-83237557D01*
X133060147Y-83220384D01*
X133173373Y-83186037D01*
X133239558Y-83179518D01*
X133305740Y-83173000D01*
X133394260Y-83173000D01*
X133460442Y-83179518D01*
X133460442Y-83179518D01*
G37*
G36*
X125280569Y-83356565D02*
X124378569Y-83356565D01*
X124378569Y-81654565D01*
X125280569Y-81654565D01*
X125280569Y-83356565D01*
X125280569Y-83356565D01*
G37*
G36*
X124010569Y-83356565D02*
X123108569Y-83356565D01*
X123108569Y-81654565D01*
X124010569Y-81654565D01*
X124010569Y-83356565D01*
X124010569Y-83356565D01*
G37*
G36*
X118920569Y-83356565D02*
X118018569Y-83356565D01*
X118018569Y-81654565D01*
X118920569Y-81654565D01*
X118920569Y-83356565D01*
X118920569Y-83356565D01*
G37*
G36*
X120200569Y-83356565D02*
X119298569Y-83356565D01*
X119298569Y-81654565D01*
X120200569Y-81654565D01*
X120200569Y-83356565D01*
X120200569Y-83356565D01*
G37*
G36*
X121460569Y-83356565D02*
X120558569Y-83356565D01*
X120558569Y-81654565D01*
X121460569Y-81654565D01*
X121460569Y-83356565D01*
X121460569Y-83356565D01*
G37*
G36*
X122730569Y-83356565D02*
X121828569Y-83356565D01*
X121828569Y-81654565D01*
X122730569Y-81654565D01*
X122730569Y-83356565D01*
X122730569Y-83356565D01*
G37*
G36*
X126540569Y-83356565D02*
X125638569Y-83356565D01*
X125638569Y-81654565D01*
X126540569Y-81654565D01*
X126540569Y-83356565D01*
X126540569Y-83356565D01*
G37*
G36*
X127820569Y-83356565D02*
X126918569Y-83356565D01*
X126918569Y-81654565D01*
X127820569Y-81654565D01*
X127820569Y-83356565D01*
X127820569Y-83356565D01*
G37*
G36*
X113296000Y-82435000D02*
X111494000Y-82435000D01*
X111494000Y-80633000D01*
X113296000Y-80633000D01*
X113296000Y-82435000D01*
X113296000Y-82435000D01*
G37*
G36*
X134251000Y-82435000D02*
X132449000Y-82435000D01*
X132449000Y-80633000D01*
X134251000Y-80633000D01*
X134251000Y-82435000D01*
X134251000Y-82435000D01*
G37*
G36*
X120850677Y-79263465D02*
X120888364Y-79274898D01*
X120923103Y-79293466D01*
X120953548Y-79318452D01*
X120978534Y-79348897D01*
X120997102Y-79383636D01*
X121008535Y-79421323D01*
X121013000Y-79466661D01*
X121013000Y-80553339D01*
X121008535Y-80598677D01*
X120997102Y-80636364D01*
X120978534Y-80671103D01*
X120953548Y-80701548D01*
X120923103Y-80726534D01*
X120888364Y-80745102D01*
X120850677Y-80756535D01*
X120805339Y-80761000D01*
X119968661Y-80761000D01*
X119923323Y-80756535D01*
X119885636Y-80745102D01*
X119850897Y-80726534D01*
X119820452Y-80701548D01*
X119795466Y-80671103D01*
X119776898Y-80636364D01*
X119765465Y-80598677D01*
X119761000Y-80553339D01*
X119761000Y-79466661D01*
X119765465Y-79421323D01*
X119776898Y-79383636D01*
X119795466Y-79348897D01*
X119820452Y-79318452D01*
X119850897Y-79293466D01*
X119885636Y-79274898D01*
X119923323Y-79263465D01*
X119968661Y-79259000D01*
X120805339Y-79259000D01*
X120850677Y-79263465D01*
X120850677Y-79263465D01*
G37*
G36*
X122900677Y-79263465D02*
X122938364Y-79274898D01*
X122973103Y-79293466D01*
X123003548Y-79318452D01*
X123028534Y-79348897D01*
X123047102Y-79383636D01*
X123058535Y-79421323D01*
X123063000Y-79466661D01*
X123063000Y-80553339D01*
X123058535Y-80598677D01*
X123047102Y-80636364D01*
X123028534Y-80671103D01*
X123003548Y-80701548D01*
X122973103Y-80726534D01*
X122938364Y-80745102D01*
X122900677Y-80756535D01*
X122855339Y-80761000D01*
X122018661Y-80761000D01*
X121973323Y-80756535D01*
X121935636Y-80745102D01*
X121900897Y-80726534D01*
X121870452Y-80701548D01*
X121845466Y-80671103D01*
X121826898Y-80636364D01*
X121815465Y-80598677D01*
X121811000Y-80553339D01*
X121811000Y-79466661D01*
X121815465Y-79421323D01*
X121826898Y-79383636D01*
X121845466Y-79348897D01*
X121870452Y-79318452D01*
X121900897Y-79293466D01*
X121935636Y-79274898D01*
X121973323Y-79263465D01*
X122018661Y-79259000D01*
X122855339Y-79259000D01*
X122900677Y-79263465D01*
X122900677Y-79263465D01*
G37*
G36*
X121126203Y-75214079D02*
X121192387Y-75220597D01*
X121305613Y-75254944D01*
X121362227Y-75272117D01*
X121500847Y-75346212D01*
X121518751Y-75355782D01*
X121554489Y-75385112D01*
X121655946Y-75468374D01*
X121739208Y-75569831D01*
X121768538Y-75605569D01*
X121768539Y-75605571D01*
X121852203Y-75762093D01*
X121852203Y-75762094D01*
X121903723Y-75931933D01*
X121921119Y-76108560D01*
X121903723Y-76285187D01*
X121869376Y-76398413D01*
X121852203Y-76455027D01*
X121778108Y-76593647D01*
X121768538Y-76611551D01*
X121739208Y-76647289D01*
X121655946Y-76748746D01*
X121554489Y-76832008D01*
X121518751Y-76861338D01*
X121518749Y-76861339D01*
X121362227Y-76945003D01*
X121305613Y-76962176D01*
X121192387Y-76996523D01*
X121126203Y-77003041D01*
X121060020Y-77009560D01*
X120971500Y-77009560D01*
X120905317Y-77003041D01*
X120839133Y-76996523D01*
X120725907Y-76962176D01*
X120669293Y-76945003D01*
X120512771Y-76861339D01*
X120512769Y-76861338D01*
X120477031Y-76832008D01*
X120375574Y-76748746D01*
X120292312Y-76647289D01*
X120262982Y-76611551D01*
X120253412Y-76593647D01*
X120179317Y-76455027D01*
X120162144Y-76398413D01*
X120127797Y-76285187D01*
X120110401Y-76108560D01*
X120127797Y-75931933D01*
X120179317Y-75762094D01*
X120179317Y-75762093D01*
X120262981Y-75605571D01*
X120262982Y-75605569D01*
X120292312Y-75569831D01*
X120375574Y-75468374D01*
X120477031Y-75385112D01*
X120512769Y-75355782D01*
X120530673Y-75346212D01*
X120669293Y-75272117D01*
X120725907Y-75254944D01*
X120839133Y-75220597D01*
X120905317Y-75214079D01*
X120971500Y-75207560D01*
X121060020Y-75207560D01*
X121126203Y-75214079D01*
X121126203Y-75214079D01*
G37*
G36*
X123666203Y-75214079D02*
X123732387Y-75220597D01*
X123845613Y-75254944D01*
X123902227Y-75272117D01*
X124040847Y-75346212D01*
X124058751Y-75355782D01*
X124094489Y-75385112D01*
X124195946Y-75468374D01*
X124279208Y-75569831D01*
X124308538Y-75605569D01*
X124308539Y-75605571D01*
X124392203Y-75762093D01*
X124392203Y-75762094D01*
X124443723Y-75931933D01*
X124461119Y-76108560D01*
X124443723Y-76285187D01*
X124409376Y-76398413D01*
X124392203Y-76455027D01*
X124318108Y-76593647D01*
X124308538Y-76611551D01*
X124279208Y-76647289D01*
X124195946Y-76748746D01*
X124094489Y-76832008D01*
X124058751Y-76861338D01*
X124058749Y-76861339D01*
X123902227Y-76945003D01*
X123845613Y-76962176D01*
X123732387Y-76996523D01*
X123666203Y-77003041D01*
X123600020Y-77009560D01*
X123511500Y-77009560D01*
X123445317Y-77003041D01*
X123379133Y-76996523D01*
X123265907Y-76962176D01*
X123209293Y-76945003D01*
X123052771Y-76861339D01*
X123052769Y-76861338D01*
X123017031Y-76832008D01*
X122915574Y-76748746D01*
X122832312Y-76647289D01*
X122802982Y-76611551D01*
X122793412Y-76593647D01*
X122719317Y-76455027D01*
X122702144Y-76398413D01*
X122667797Y-76285187D01*
X122650401Y-76108560D01*
X122667797Y-75931933D01*
X122719317Y-75762094D01*
X122719317Y-75762093D01*
X122802981Y-75605571D01*
X122802982Y-75605569D01*
X122832312Y-75569831D01*
X122915574Y-75468374D01*
X123017031Y-75385112D01*
X123052769Y-75355782D01*
X123070673Y-75346212D01*
X123209293Y-75272117D01*
X123265907Y-75254944D01*
X123379133Y-75220597D01*
X123445317Y-75214079D01*
X123511500Y-75207560D01*
X123600020Y-75207560D01*
X123666203Y-75214079D01*
X123666203Y-75214079D01*
G37*
G36*
X126996760Y-77009560D02*
X125194760Y-77009560D01*
X125194760Y-75207560D01*
X126996760Y-75207560D01*
X126996760Y-77009560D01*
X126996760Y-77009560D01*
G37*
M02*
