G04 #@! TF.GenerationSoftware,KiCad,Pcbnew,(5.0.2)-1*
G04 #@! TF.CreationDate,2019-08-11T23:38:39-04:00*
G04 #@! TF.ProjectId,LT1356,4c543133-3536-42e6-9b69-6361645f7063,rev?*
G04 #@! TF.SameCoordinates,Original*
G04 #@! TF.FileFunction,Legend,Top*
G04 #@! TF.FilePolarity,Positive*
%FSLAX46Y46*%
G04 Gerber Fmt 4.6, Leading zero omitted, Abs format (unit mm)*
G04 Created by KiCad (PCBNEW (5.0.2)-1) date 8/11/2019 11:38:39 PM*
%MOMM*%
%LPD*%
G01*
G04 APERTURE LIST*
%ADD10C,0.060000*%
%ADD11C,0.120000*%
G04 APERTURE END LIST*
D10*
X135401809Y-88277000D02*
X135401809Y-88372238D01*
X135378000Y-88419857D01*
X135330380Y-88467476D01*
X135235142Y-88491285D01*
X135068476Y-88491285D01*
X134973238Y-88467476D01*
X134925619Y-88419857D01*
X134901809Y-88372238D01*
X134901809Y-88277000D01*
X134925619Y-88229380D01*
X134973238Y-88181761D01*
X135068476Y-88157952D01*
X135235142Y-88157952D01*
X135330380Y-88181761D01*
X135378000Y-88229380D01*
X135401809Y-88277000D01*
X135401809Y-88705571D02*
X134997047Y-88705571D01*
X134949428Y-88729380D01*
X134925619Y-88753190D01*
X134901809Y-88800809D01*
X134901809Y-88896047D01*
X134925619Y-88943666D01*
X134949428Y-88967476D01*
X134997047Y-88991285D01*
X135401809Y-88991285D01*
X135401809Y-89157952D02*
X135401809Y-89443666D01*
X134901809Y-89300809D02*
X135401809Y-89300809D01*
X134901809Y-89610333D02*
X135401809Y-89610333D01*
X135401809Y-89729380D01*
X135378000Y-89800809D01*
X135330380Y-89848428D01*
X135282761Y-89872238D01*
X135187523Y-89896047D01*
X135116095Y-89896047D01*
X135020857Y-89872238D01*
X134973238Y-89848428D01*
X134925619Y-89800809D01*
X134901809Y-89729380D01*
X134901809Y-89610333D01*
X135401809Y-85864000D02*
X135401809Y-85959238D01*
X135378000Y-86006857D01*
X135330380Y-86054476D01*
X135235142Y-86078285D01*
X135068476Y-86078285D01*
X134973238Y-86054476D01*
X134925619Y-86006857D01*
X134901809Y-85959238D01*
X134901809Y-85864000D01*
X134925619Y-85816380D01*
X134973238Y-85768761D01*
X135068476Y-85744952D01*
X135235142Y-85744952D01*
X135330380Y-85768761D01*
X135378000Y-85816380D01*
X135401809Y-85864000D01*
X135401809Y-86292571D02*
X134997047Y-86292571D01*
X134949428Y-86316380D01*
X134925619Y-86340190D01*
X134901809Y-86387809D01*
X134901809Y-86483047D01*
X134925619Y-86530666D01*
X134949428Y-86554476D01*
X134997047Y-86578285D01*
X135401809Y-86578285D01*
X135401809Y-86744952D02*
X135401809Y-87030666D01*
X134901809Y-86887809D02*
X135401809Y-86887809D01*
X134949428Y-87483047D02*
X134925619Y-87459238D01*
X134901809Y-87387809D01*
X134901809Y-87340190D01*
X134925619Y-87268761D01*
X134973238Y-87221142D01*
X135020857Y-87197333D01*
X135116095Y-87173523D01*
X135187523Y-87173523D01*
X135282761Y-87197333D01*
X135330380Y-87221142D01*
X135378000Y-87268761D01*
X135401809Y-87340190D01*
X135401809Y-87387809D01*
X135378000Y-87459238D01*
X135354190Y-87483047D01*
X135401809Y-83197000D02*
X135401809Y-83292238D01*
X135378000Y-83339857D01*
X135330380Y-83387476D01*
X135235142Y-83411285D01*
X135068476Y-83411285D01*
X134973238Y-83387476D01*
X134925619Y-83339857D01*
X134901809Y-83292238D01*
X134901809Y-83197000D01*
X134925619Y-83149380D01*
X134973238Y-83101761D01*
X135068476Y-83077952D01*
X135235142Y-83077952D01*
X135330380Y-83101761D01*
X135378000Y-83149380D01*
X135401809Y-83197000D01*
X135401809Y-83625571D02*
X134997047Y-83625571D01*
X134949428Y-83649380D01*
X134925619Y-83673190D01*
X134901809Y-83720809D01*
X134901809Y-83816047D01*
X134925619Y-83863666D01*
X134949428Y-83887476D01*
X134997047Y-83911285D01*
X135401809Y-83911285D01*
X135401809Y-84077952D02*
X135401809Y-84363666D01*
X134901809Y-84220809D02*
X135401809Y-84220809D01*
X135163714Y-84697000D02*
X135139904Y-84768428D01*
X135116095Y-84792238D01*
X135068476Y-84816047D01*
X134997047Y-84816047D01*
X134949428Y-84792238D01*
X134925619Y-84768428D01*
X134901809Y-84720809D01*
X134901809Y-84530333D01*
X135401809Y-84530333D01*
X135401809Y-84697000D01*
X135378000Y-84744619D01*
X135354190Y-84768428D01*
X135306571Y-84792238D01*
X135258952Y-84792238D01*
X135211333Y-84768428D01*
X135187523Y-84744619D01*
X135163714Y-84697000D01*
X135163714Y-84530333D01*
X135401809Y-80819714D02*
X135401809Y-80914952D01*
X135378000Y-80962571D01*
X135330380Y-81010190D01*
X135235142Y-81034000D01*
X135068476Y-81034000D01*
X134973238Y-81010190D01*
X134925619Y-80962571D01*
X134901809Y-80914952D01*
X134901809Y-80819714D01*
X134925619Y-80772095D01*
X134973238Y-80724476D01*
X135068476Y-80700666D01*
X135235142Y-80700666D01*
X135330380Y-80724476D01*
X135378000Y-80772095D01*
X135401809Y-80819714D01*
X135401809Y-81248285D02*
X134997047Y-81248285D01*
X134949428Y-81272095D01*
X134925619Y-81295904D01*
X134901809Y-81343523D01*
X134901809Y-81438761D01*
X134925619Y-81486380D01*
X134949428Y-81510190D01*
X134997047Y-81534000D01*
X135401809Y-81534000D01*
X135401809Y-81700666D02*
X135401809Y-81986380D01*
X134901809Y-81843523D02*
X135401809Y-81843523D01*
X135044666Y-82129238D02*
X135044666Y-82367333D01*
X134901809Y-82081619D02*
X135401809Y-82248285D01*
X134901809Y-82414952D01*
X110263809Y-88515095D02*
X110763809Y-88515095D01*
X110263809Y-88753190D02*
X110763809Y-88753190D01*
X110263809Y-89038904D01*
X110763809Y-89038904D01*
X110263809Y-89277000D02*
X110763809Y-89277000D01*
X110763809Y-89396047D01*
X110740000Y-89467476D01*
X110692380Y-89515095D01*
X110644761Y-89538904D01*
X110549523Y-89562714D01*
X110478095Y-89562714D01*
X110382857Y-89538904D01*
X110335238Y-89515095D01*
X110287619Y-89467476D01*
X110263809Y-89396047D01*
X110263809Y-89277000D01*
X110263809Y-86102095D02*
X110763809Y-86102095D01*
X110263809Y-86340190D02*
X110763809Y-86340190D01*
X110263809Y-86625904D01*
X110763809Y-86625904D01*
X110311428Y-87149714D02*
X110287619Y-87125904D01*
X110263809Y-87054476D01*
X110263809Y-87006857D01*
X110287619Y-86935428D01*
X110335238Y-86887809D01*
X110382857Y-86864000D01*
X110478095Y-86840190D01*
X110549523Y-86840190D01*
X110644761Y-86864000D01*
X110692380Y-86887809D01*
X110740000Y-86935428D01*
X110763809Y-87006857D01*
X110763809Y-87054476D01*
X110740000Y-87125904D01*
X110716190Y-87149714D01*
X110263809Y-83562095D02*
X110763809Y-83562095D01*
X110263809Y-83800190D02*
X110763809Y-83800190D01*
X110263809Y-84085904D01*
X110763809Y-84085904D01*
X110525714Y-84490666D02*
X110501904Y-84562095D01*
X110478095Y-84585904D01*
X110430476Y-84609714D01*
X110359047Y-84609714D01*
X110311428Y-84585904D01*
X110287619Y-84562095D01*
X110263809Y-84514476D01*
X110263809Y-84324000D01*
X110763809Y-84324000D01*
X110763809Y-84490666D01*
X110740000Y-84538285D01*
X110716190Y-84562095D01*
X110668571Y-84585904D01*
X110620952Y-84585904D01*
X110573333Y-84562095D01*
X110549523Y-84538285D01*
X110525714Y-84490666D01*
X110525714Y-84324000D01*
X110263809Y-80930809D02*
X110763809Y-80930809D01*
X110263809Y-81168904D02*
X110763809Y-81168904D01*
X110263809Y-81454619D01*
X110763809Y-81454619D01*
X110406666Y-81668904D02*
X110406666Y-81907000D01*
X110263809Y-81621285D02*
X110763809Y-81787952D01*
X110263809Y-81954619D01*
X125103047Y-74203714D02*
X125484000Y-74203714D01*
X125984000Y-74394190D02*
X125698285Y-74394190D01*
X125841142Y-74394190D02*
X125841142Y-73894190D01*
X125793523Y-73965619D01*
X125745904Y-74013238D01*
X125698285Y-74037047D01*
X126436380Y-73894190D02*
X126198285Y-73894190D01*
X126174476Y-74132285D01*
X126198285Y-74108476D01*
X126245904Y-74084666D01*
X126364952Y-74084666D01*
X126412571Y-74108476D01*
X126436380Y-74132285D01*
X126460190Y-74179904D01*
X126460190Y-74298952D01*
X126436380Y-74346571D01*
X126412571Y-74370380D01*
X126364952Y-74394190D01*
X126245904Y-74394190D01*
X126198285Y-74370380D01*
X126174476Y-74346571D01*
X126603047Y-73894190D02*
X126769714Y-74394190D01*
X126936380Y-73894190D01*
X122690047Y-74203714D02*
X123071000Y-74203714D01*
X122880523Y-74394190D02*
X122880523Y-74013238D01*
X123571000Y-74394190D02*
X123285285Y-74394190D01*
X123428142Y-74394190D02*
X123428142Y-73894190D01*
X123380523Y-73965619D01*
X123332904Y-74013238D01*
X123285285Y-74037047D01*
X124023380Y-73894190D02*
X123785285Y-73894190D01*
X123761476Y-74132285D01*
X123785285Y-74108476D01*
X123832904Y-74084666D01*
X123951952Y-74084666D01*
X123999571Y-74108476D01*
X124023380Y-74132285D01*
X124047190Y-74179904D01*
X124047190Y-74298952D01*
X124023380Y-74346571D01*
X123999571Y-74370380D01*
X123951952Y-74394190D01*
X123832904Y-74394190D01*
X123785285Y-74370380D01*
X123761476Y-74346571D01*
X124190047Y-73894190D02*
X124356714Y-74394190D01*
X124523380Y-73894190D01*
X120650047Y-73918000D02*
X120602428Y-73894190D01*
X120531000Y-73894190D01*
X120459571Y-73918000D01*
X120411952Y-73965619D01*
X120388142Y-74013238D01*
X120364333Y-74108476D01*
X120364333Y-74179904D01*
X120388142Y-74275142D01*
X120411952Y-74322761D01*
X120459571Y-74370380D01*
X120531000Y-74394190D01*
X120578619Y-74394190D01*
X120650047Y-74370380D01*
X120673857Y-74346571D01*
X120673857Y-74179904D01*
X120578619Y-74179904D01*
X120888142Y-74394190D02*
X120888142Y-73894190D01*
X121173857Y-74394190D01*
X121173857Y-73894190D01*
X121411952Y-74394190D02*
X121411952Y-73894190D01*
X121531000Y-73894190D01*
X121602428Y-73918000D01*
X121650047Y-73965619D01*
X121673857Y-74013238D01*
X121697666Y-74108476D01*
X121697666Y-74179904D01*
X121673857Y-74275142D01*
X121650047Y-74322761D01*
X121602428Y-74370380D01*
X121531000Y-74394190D01*
X121411952Y-74394190D01*
X125858342Y-91870790D02*
X125620247Y-91870790D01*
X125620247Y-91370790D01*
X125953580Y-91370790D02*
X126239295Y-91370790D01*
X126096438Y-91870790D02*
X126096438Y-91370790D01*
X126667866Y-91870790D02*
X126382152Y-91870790D01*
X126525009Y-91870790D02*
X126525009Y-91370790D01*
X126477390Y-91442219D01*
X126429771Y-91489838D01*
X126382152Y-91513647D01*
X126834533Y-91370790D02*
X127144057Y-91370790D01*
X126977390Y-91561266D01*
X127048819Y-91561266D01*
X127096438Y-91585076D01*
X127120247Y-91608885D01*
X127144057Y-91656504D01*
X127144057Y-91775552D01*
X127120247Y-91823171D01*
X127096438Y-91846980D01*
X127048819Y-91870790D01*
X126905961Y-91870790D01*
X126858342Y-91846980D01*
X126834533Y-91823171D01*
X127596438Y-91370790D02*
X127358342Y-91370790D01*
X127334533Y-91608885D01*
X127358342Y-91585076D01*
X127405961Y-91561266D01*
X127525009Y-91561266D01*
X127572628Y-91585076D01*
X127596438Y-91608885D01*
X127620247Y-91656504D01*
X127620247Y-91775552D01*
X127596438Y-91823171D01*
X127572628Y-91846980D01*
X127525009Y-91870790D01*
X127405961Y-91870790D01*
X127358342Y-91846980D01*
X127334533Y-91823171D01*
X128048819Y-91370790D02*
X127953580Y-91370790D01*
X127905961Y-91394600D01*
X127882152Y-91418409D01*
X127834533Y-91489838D01*
X127810723Y-91585076D01*
X127810723Y-91775552D01*
X127834533Y-91823171D01*
X127858342Y-91846980D01*
X127905961Y-91870790D01*
X128001200Y-91870790D01*
X128048819Y-91846980D01*
X128072628Y-91823171D01*
X128096438Y-91775552D01*
X128096438Y-91656504D01*
X128072628Y-91608885D01*
X128048819Y-91585076D01*
X128001200Y-91561266D01*
X127905961Y-91561266D01*
X127858342Y-91585076D01*
X127834533Y-91608885D01*
X127810723Y-91656504D01*
X128691676Y-91608885D02*
X128858342Y-91608885D01*
X128929771Y-91870790D02*
X128691676Y-91870790D01*
X128691676Y-91370790D01*
X128929771Y-91370790D01*
X129096438Y-91537457D02*
X129215485Y-91870790D01*
X129334533Y-91537457D01*
X129739295Y-91870790D02*
X129739295Y-91608885D01*
X129715485Y-91561266D01*
X129667866Y-91537457D01*
X129572628Y-91537457D01*
X129525009Y-91561266D01*
X129739295Y-91846980D02*
X129691676Y-91870790D01*
X129572628Y-91870790D01*
X129525009Y-91846980D01*
X129501200Y-91799361D01*
X129501200Y-91751742D01*
X129525009Y-91704123D01*
X129572628Y-91680314D01*
X129691676Y-91680314D01*
X129739295Y-91656504D01*
X130048819Y-91870790D02*
X130001200Y-91846980D01*
X129977390Y-91799361D01*
X129977390Y-91370790D01*
X130453580Y-91537457D02*
X130453580Y-91870790D01*
X130239295Y-91537457D02*
X130239295Y-91799361D01*
X130263104Y-91846980D01*
X130310723Y-91870790D01*
X130382152Y-91870790D01*
X130429771Y-91846980D01*
X130453580Y-91823171D01*
X130905961Y-91870790D02*
X130905961Y-91608885D01*
X130882152Y-91561266D01*
X130834533Y-91537457D01*
X130739295Y-91537457D01*
X130691676Y-91561266D01*
X130905961Y-91846980D02*
X130858342Y-91870790D01*
X130739295Y-91870790D01*
X130691676Y-91846980D01*
X130667866Y-91799361D01*
X130667866Y-91751742D01*
X130691676Y-91704123D01*
X130739295Y-91680314D01*
X130858342Y-91680314D01*
X130905961Y-91656504D01*
X131072628Y-91537457D02*
X131263104Y-91537457D01*
X131144057Y-91370790D02*
X131144057Y-91799361D01*
X131167866Y-91846980D01*
X131215485Y-91870790D01*
X131263104Y-91870790D01*
X131429771Y-91870790D02*
X131429771Y-91537457D01*
X131429771Y-91370790D02*
X131405961Y-91394600D01*
X131429771Y-91418409D01*
X131453580Y-91394600D01*
X131429771Y-91370790D01*
X131429771Y-91418409D01*
X131739295Y-91870790D02*
X131691676Y-91846980D01*
X131667866Y-91823171D01*
X131644057Y-91775552D01*
X131644057Y-91632695D01*
X131667866Y-91585076D01*
X131691676Y-91561266D01*
X131739295Y-91537457D01*
X131810723Y-91537457D01*
X131858342Y-91561266D01*
X131882152Y-91585076D01*
X131905961Y-91632695D01*
X131905961Y-91775552D01*
X131882152Y-91823171D01*
X131858342Y-91846980D01*
X131810723Y-91870790D01*
X131739295Y-91870790D01*
X132120247Y-91537457D02*
X132120247Y-91870790D01*
X132120247Y-91585076D02*
X132144057Y-91561266D01*
X132191676Y-91537457D01*
X132263104Y-91537457D01*
X132310723Y-91561266D01*
X132334533Y-91608885D01*
X132334533Y-91870790D01*
X133120247Y-91608885D02*
X133191676Y-91632695D01*
X133215485Y-91656504D01*
X133239295Y-91704123D01*
X133239295Y-91775552D01*
X133215485Y-91823171D01*
X133191676Y-91846980D01*
X133144057Y-91870790D01*
X132953580Y-91870790D01*
X132953580Y-91370790D01*
X133120247Y-91370790D01*
X133167866Y-91394600D01*
X133191676Y-91418409D01*
X133215485Y-91466028D01*
X133215485Y-91513647D01*
X133191676Y-91561266D01*
X133167866Y-91585076D01*
X133120247Y-91608885D01*
X132953580Y-91608885D01*
X133525009Y-91870790D02*
X133477390Y-91846980D01*
X133453580Y-91823171D01*
X133429771Y-91775552D01*
X133429771Y-91632695D01*
X133453580Y-91585076D01*
X133477390Y-91561266D01*
X133525009Y-91537457D01*
X133596438Y-91537457D01*
X133644057Y-91561266D01*
X133667866Y-91585076D01*
X133691676Y-91632695D01*
X133691676Y-91775552D01*
X133667866Y-91823171D01*
X133644057Y-91846980D01*
X133596438Y-91870790D01*
X133525009Y-91870790D01*
X134120247Y-91870790D02*
X134120247Y-91608885D01*
X134096438Y-91561266D01*
X134048819Y-91537457D01*
X133953580Y-91537457D01*
X133905961Y-91561266D01*
X134120247Y-91846980D02*
X134072628Y-91870790D01*
X133953580Y-91870790D01*
X133905961Y-91846980D01*
X133882152Y-91799361D01*
X133882152Y-91751742D01*
X133905961Y-91704123D01*
X133953580Y-91680314D01*
X134072628Y-91680314D01*
X134120247Y-91656504D01*
X134358342Y-91870790D02*
X134358342Y-91537457D01*
X134358342Y-91632695D02*
X134382152Y-91585076D01*
X134405961Y-91561266D01*
X134453580Y-91537457D01*
X134501200Y-91537457D01*
X134882152Y-91870790D02*
X134882152Y-91370790D01*
X134882152Y-91846980D02*
X134834533Y-91870790D01*
X134739295Y-91870790D01*
X134691676Y-91846980D01*
X134667866Y-91823171D01*
X134644057Y-91775552D01*
X134644057Y-91632695D01*
X134667866Y-91585076D01*
X134691676Y-91561266D01*
X134739295Y-91537457D01*
X134834533Y-91537457D01*
X134882152Y-91561266D01*
X125060723Y-92871266D02*
X125036914Y-92847457D01*
X124989295Y-92776028D01*
X124965485Y-92728409D01*
X124941676Y-92656980D01*
X124917866Y-92537933D01*
X124917866Y-92442695D01*
X124941676Y-92323647D01*
X124965485Y-92252219D01*
X124989295Y-92204600D01*
X125036914Y-92133171D01*
X125060723Y-92109361D01*
X125536914Y-92633171D02*
X125513104Y-92656980D01*
X125441676Y-92680790D01*
X125394057Y-92680790D01*
X125322628Y-92656980D01*
X125275009Y-92609361D01*
X125251200Y-92561742D01*
X125227390Y-92466504D01*
X125227390Y-92395076D01*
X125251200Y-92299838D01*
X125275009Y-92252219D01*
X125322628Y-92204600D01*
X125394057Y-92180790D01*
X125441676Y-92180790D01*
X125513104Y-92204600D01*
X125536914Y-92228409D01*
X125703580Y-92871266D02*
X125727390Y-92847457D01*
X125775009Y-92776028D01*
X125798819Y-92728409D01*
X125822628Y-92656980D01*
X125846438Y-92537933D01*
X125846438Y-92442695D01*
X125822628Y-92323647D01*
X125798819Y-92252219D01*
X125775009Y-92204600D01*
X125727390Y-92133171D01*
X125703580Y-92109361D01*
X126394057Y-92180790D02*
X126679771Y-92180790D01*
X126536914Y-92680790D02*
X126536914Y-92180790D01*
X126917866Y-92680790D02*
X126870247Y-92656980D01*
X126846438Y-92633171D01*
X126822628Y-92585552D01*
X126822628Y-92442695D01*
X126846438Y-92395076D01*
X126870247Y-92371266D01*
X126917866Y-92347457D01*
X126989295Y-92347457D01*
X127036914Y-92371266D01*
X127060723Y-92395076D01*
X127084533Y-92442695D01*
X127084533Y-92585552D01*
X127060723Y-92633171D01*
X127036914Y-92656980D01*
X126989295Y-92680790D01*
X126917866Y-92680790D01*
X127298819Y-92347457D02*
X127298819Y-92680790D01*
X127298819Y-92395076D02*
X127322628Y-92371266D01*
X127370247Y-92347457D01*
X127441676Y-92347457D01*
X127489295Y-92371266D01*
X127513104Y-92418885D01*
X127513104Y-92680790D01*
X127703580Y-92347457D02*
X127822628Y-92680790D01*
X127941676Y-92347457D02*
X127822628Y-92680790D01*
X127775009Y-92799838D01*
X127751200Y-92823647D01*
X127703580Y-92847457D01*
X128798819Y-92633171D02*
X128775009Y-92656980D01*
X128703580Y-92680790D01*
X128655961Y-92680790D01*
X128584533Y-92656980D01*
X128536914Y-92609361D01*
X128513104Y-92561742D01*
X128489295Y-92466504D01*
X128489295Y-92395076D01*
X128513104Y-92299838D01*
X128536914Y-92252219D01*
X128584533Y-92204600D01*
X128655961Y-92180790D01*
X128703580Y-92180790D01*
X128775009Y-92204600D01*
X128798819Y-92228409D01*
X129084533Y-92680790D02*
X129036914Y-92656980D01*
X129013104Y-92633171D01*
X128989295Y-92585552D01*
X128989295Y-92442695D01*
X129013104Y-92395076D01*
X129036914Y-92371266D01*
X129084533Y-92347457D01*
X129155961Y-92347457D01*
X129203580Y-92371266D01*
X129227390Y-92395076D01*
X129251200Y-92442695D01*
X129251200Y-92585552D01*
X129227390Y-92633171D01*
X129203580Y-92656980D01*
X129155961Y-92680790D01*
X129084533Y-92680790D01*
X129465485Y-92680790D02*
X129465485Y-92347457D01*
X129465485Y-92442695D02*
X129489295Y-92395076D01*
X129513104Y-92371266D01*
X129560723Y-92347457D01*
X129608342Y-92347457D01*
X129751200Y-92656980D02*
X129798819Y-92680790D01*
X129894057Y-92680790D01*
X129941676Y-92656980D01*
X129965485Y-92609361D01*
X129965485Y-92585552D01*
X129941676Y-92537933D01*
X129894057Y-92514123D01*
X129822628Y-92514123D01*
X129775009Y-92490314D01*
X129751200Y-92442695D01*
X129751200Y-92418885D01*
X129775009Y-92371266D01*
X129822628Y-92347457D01*
X129894057Y-92347457D01*
X129941676Y-92371266D01*
X130108342Y-92347457D02*
X130298819Y-92347457D01*
X130179771Y-92180790D02*
X130179771Y-92609361D01*
X130203580Y-92656980D01*
X130251200Y-92680790D01*
X130298819Y-92680790D01*
X130655961Y-92656980D02*
X130608342Y-92680790D01*
X130513104Y-92680790D01*
X130465485Y-92656980D01*
X130441676Y-92609361D01*
X130441676Y-92418885D01*
X130465485Y-92371266D01*
X130513104Y-92347457D01*
X130608342Y-92347457D01*
X130655961Y-92371266D01*
X130679771Y-92418885D01*
X130679771Y-92466504D01*
X130441676Y-92514123D01*
X130894057Y-92347457D02*
X130894057Y-92680790D01*
X130894057Y-92395076D02*
X130917866Y-92371266D01*
X130965485Y-92347457D01*
X131036914Y-92347457D01*
X131084533Y-92371266D01*
X131108342Y-92418885D01*
X131108342Y-92680790D01*
X131370247Y-92656980D02*
X131370247Y-92680790D01*
X131346438Y-92728409D01*
X131322628Y-92752219D01*
X131941676Y-92228409D02*
X131965485Y-92204600D01*
X132013104Y-92180790D01*
X132132152Y-92180790D01*
X132179771Y-92204600D01*
X132203580Y-92228409D01*
X132227390Y-92276028D01*
X132227390Y-92323647D01*
X132203580Y-92395076D01*
X131917866Y-92680790D01*
X132227390Y-92680790D01*
X132536914Y-92180790D02*
X132584533Y-92180790D01*
X132632152Y-92204600D01*
X132655961Y-92228409D01*
X132679771Y-92276028D01*
X132703580Y-92371266D01*
X132703580Y-92490314D01*
X132679771Y-92585552D01*
X132655961Y-92633171D01*
X132632152Y-92656980D01*
X132584533Y-92680790D01*
X132536914Y-92680790D01*
X132489295Y-92656980D01*
X132465485Y-92633171D01*
X132441676Y-92585552D01*
X132417866Y-92490314D01*
X132417866Y-92371266D01*
X132441676Y-92276028D01*
X132465485Y-92228409D01*
X132489295Y-92204600D01*
X132536914Y-92180790D01*
X133179771Y-92680790D02*
X132894057Y-92680790D01*
X133036914Y-92680790D02*
X133036914Y-92180790D01*
X132989295Y-92252219D01*
X132941676Y-92299838D01*
X132894057Y-92323647D01*
X133417866Y-92680790D02*
X133513104Y-92680790D01*
X133560723Y-92656980D01*
X133584533Y-92633171D01*
X133632152Y-92561742D01*
X133655961Y-92466504D01*
X133655961Y-92276028D01*
X133632152Y-92228409D01*
X133608342Y-92204600D01*
X133560723Y-92180790D01*
X133465485Y-92180790D01*
X133417866Y-92204600D01*
X133394057Y-92228409D01*
X133370247Y-92276028D01*
X133370247Y-92395076D01*
X133394057Y-92442695D01*
X133417866Y-92466504D01*
X133465485Y-92490314D01*
X133560723Y-92490314D01*
X133608342Y-92466504D01*
X133632152Y-92442695D01*
X133655961Y-92395076D01*
X134203580Y-92347457D02*
X134322628Y-92680790D01*
X134441676Y-92347457D01*
X134894057Y-92680790D02*
X134608342Y-92680790D01*
X134751200Y-92680790D02*
X134751200Y-92180790D01*
X134703580Y-92252219D01*
X134655961Y-92299838D01*
X134608342Y-92323647D01*
X135108342Y-92633171D02*
X135132152Y-92656980D01*
X135108342Y-92680790D01*
X135084533Y-92656980D01*
X135108342Y-92633171D01*
X135108342Y-92680790D01*
X135441676Y-92180790D02*
X135489295Y-92180790D01*
X135536914Y-92204600D01*
X135560723Y-92228409D01*
X135584533Y-92276028D01*
X135608342Y-92371266D01*
X135608342Y-92490314D01*
X135584533Y-92585552D01*
X135560723Y-92633171D01*
X135536914Y-92656980D01*
X135489295Y-92680790D01*
X135441676Y-92680790D01*
X135394057Y-92656980D01*
X135370247Y-92633171D01*
X135346438Y-92585552D01*
X135322628Y-92490314D01*
X135322628Y-92371266D01*
X135346438Y-92276028D01*
X135370247Y-92228409D01*
X135394057Y-92204600D01*
X135441676Y-92180790D01*
D11*
G04 #@! TO.C,J2*
X111065000Y-82804000D02*
X113725000Y-82804000D01*
X111065000Y-82804000D02*
X111065000Y-90484000D01*
X111065000Y-90484000D02*
X113725000Y-90484000D01*
X113725000Y-82804000D02*
X113725000Y-90484000D01*
X113725000Y-80204000D02*
X113725000Y-81534000D01*
X112395000Y-80204000D02*
X113725000Y-80204000D01*
G04 #@! TO.C,J3*
X133350000Y-80204000D02*
X134680000Y-80204000D01*
X134680000Y-80204000D02*
X134680000Y-81534000D01*
X134680000Y-82804000D02*
X134680000Y-90484000D01*
X132020000Y-90484000D02*
X134680000Y-90484000D01*
X132020000Y-82804000D02*
X132020000Y-90484000D01*
X132020000Y-82804000D02*
X134680000Y-82804000D01*
G04 #@! TO.C,U1*
X128319569Y-82905565D02*
X127919569Y-82905565D01*
X127919569Y-82905565D02*
X127919569Y-81505565D01*
X128319569Y-82905565D02*
X128319569Y-87705565D01*
X117519569Y-82905565D02*
X117519569Y-87705565D01*
G04 #@! TO.C,C1*
X121673252Y-79300000D02*
X121150748Y-79300000D01*
X121673252Y-80720000D02*
X121150748Y-80720000D01*
G04 #@! TO.C,C2*
X121150748Y-89968000D02*
X121673252Y-89968000D01*
X121150748Y-91388000D02*
X121673252Y-91388000D01*
G04 #@! TO.C,J1*
X119685760Y-74778560D02*
X119685760Y-77438560D01*
X124825760Y-74778560D02*
X119685760Y-74778560D01*
X124825760Y-77438560D02*
X119685760Y-77438560D01*
X124825760Y-74778560D02*
X124825760Y-77438560D01*
X126095760Y-74778560D02*
X127425760Y-74778560D01*
X127425760Y-74778560D02*
X127425760Y-76108560D01*
G04 #@! TO.C,C1*
D10*
X119456971Y-80144133D02*
X119480780Y-80167942D01*
X119504590Y-80239371D01*
X119504590Y-80286990D01*
X119480780Y-80358419D01*
X119433161Y-80406038D01*
X119385542Y-80429847D01*
X119290304Y-80453657D01*
X119218876Y-80453657D01*
X119123638Y-80429847D01*
X119076019Y-80406038D01*
X119028400Y-80358419D01*
X119004590Y-80286990D01*
X119004590Y-80239371D01*
X119028400Y-80167942D01*
X119052209Y-80144133D01*
X119504590Y-79667942D02*
X119504590Y-79953657D01*
X119504590Y-79810800D02*
X119004590Y-79810800D01*
X119076019Y-79858419D01*
X119123638Y-79906038D01*
X119147447Y-79953657D01*
G04 #@! TO.C,C2*
X119456971Y-90761333D02*
X119480780Y-90785142D01*
X119504590Y-90856571D01*
X119504590Y-90904190D01*
X119480780Y-90975619D01*
X119433161Y-91023238D01*
X119385542Y-91047047D01*
X119290304Y-91070857D01*
X119218876Y-91070857D01*
X119123638Y-91047047D01*
X119076019Y-91023238D01*
X119028400Y-90975619D01*
X119004590Y-90904190D01*
X119004590Y-90856571D01*
X119028400Y-90785142D01*
X119052209Y-90761333D01*
X119052209Y-90570857D02*
X119028400Y-90547047D01*
X119004590Y-90499428D01*
X119004590Y-90380380D01*
X119028400Y-90332761D01*
X119052209Y-90308952D01*
X119099828Y-90285142D01*
X119147447Y-90285142D01*
X119218876Y-90308952D01*
X119504590Y-90594666D01*
X119504590Y-90285142D01*
G04 #@! TD*
M02*
